<svg width="40" height="38" viewBox="0 0 40 38" fill="none" xmlns="http://www.w3.org/2000/svg">
<path d="M4.3281 0.191175C3.77695 0.356521 2.81244 0.935228 2.17861 1.48638C-2.80929 5.73023 1.48968 13.777 7.80034 12.0133C11.8513 10.8835 13.5323 5.89558 10.997 2.42333C9.64669 0.549423 6.64293 -0.442646 4.3281 0.191175ZM8.7373 3.88388C9.45379 4.65549 9.61913 5.06885 9.61913 6.00581C9.61913 7.49391 8.87508 8.76155 7.60744 9.34026C6.31224 9.97408 5.45795 9.91897 4.35566 9.17492C2.3164 7.79704 1.9306 5.45466 3.50137 3.71853C4.93436 2.1202 7.16652 2.20287 8.7373 3.88388Z" fill="black"/>
<path d="M28.3583 5.53744C22.8192 6.77753 18.5478 10.7734 16.8944 16.2849C16.5086 17.525 16.3708 18.8477 16.3983 21.6586C16.3983 24.993 16.481 25.5993 17.1424 27.5559C18.9612 32.7367 22.461 35.8507 27.8071 36.9805C32.0234 37.8899 40.208 36.8428 39.8222 35.4649C39.7395 35.2169 39.5466 34.5004 39.3813 33.8941L39.1057 32.7367L37.783 33.1225C31.9959 34.8862 26.0986 33.6185 23.2602 29.9809C21.1107 27.2527 20.1737 23.3671 20.6698 19.3437C21.1107 15.7888 22.1854 13.5016 24.3625 11.4899C27.7796 8.34831 33.6493 7.5767 38.5821 9.64351C38.9404 9.80886 39.1333 9.50572 39.4915 8.15541C39.7671 7.21845 39.9324 6.41928 39.8773 6.36417C39.8222 6.30905 39.1057 6.06104 38.279 5.81302C36.1571 5.15164 30.7007 5.01385 28.3583 5.53744Z" fill="black"/>
</svg>
