<svg width="37" height="31" viewBox="0 0 37 31" fill="none" xmlns="http://www.w3.org/2000/svg">
<path d="M27.2579 0.0858128C27.1819 0.161893 27.1565 0.669096 27.1565 1.97937C27.1565 3.87293 27.1819 4.01664 27.5538 3.94056C27.6975 3.9152 27.706 3.77149 27.706 1.97092C27.706 0.0858128 27.6975 0.026639 27.5369 0.00127888C27.4439 -0.00717449 27.3171 0.026639 27.2579 0.0858128Z" fill="black"/>
<path d="M31.5269 3.40802C30.3941 4.862 30.2504 5.18323 30.7069 5.18323C30.8675 5.18323 31.1211 4.91272 31.9918 3.83069C32.7949 2.82473 33.0654 2.42742 33.0485 2.26681C33.0401 2.10619 32.9809 2.04702 32.8203 2.03011C32.6343 2.01321 32.4652 2.19073 31.5269 3.40802Z" fill="black"/>
<path d="M21.3744 2.56261C21.349 2.6387 21.3575 2.7655 21.3913 2.83312C21.5603 3.12899 23.6652 5.47903 23.8089 5.52975C24.0118 5.59738 24.2316 5.37759 24.164 5.17471C24.1302 5.08172 23.6061 4.43927 22.989 3.74609C22.1605 2.80776 21.8139 2.46963 21.6449 2.45272C21.5096 2.43581 21.4082 2.47808 21.3744 2.56261Z" fill="black"/>
<path d="M26.7592 4.55767C25.3728 4.78591 24.2485 5.63125 23.6145 6.90771C23.2595 7.60934 23.158 8.17572 23.2003 9.06332C23.2426 9.76495 23.3017 10.0101 23.6483 10.8385C23.716 10.9907 23.6906 10.9991 23.2172 10.94C22.5832 10.8723 21.5265 11.0499 20.8672 11.3457C20.5882 11.4641 20.36 11.5571 20.36 11.5486C20.3515 11.5317 20.2585 11.2528 20.1571 10.9315C18.9398 7.0176 13.8593 5.83413 10.926 8.77591C10.199 9.49445 9.75096 10.2637 9.52272 11.1682C9.38747 11.7261 9.37056 11.7515 9.15923 11.7008C8.66047 11.574 7.29948 11.5486 6.8599 11.6501C4.83109 12.115 3.2334 14.0339 3.2334 15.9951C3.2334 16.3501 3.22495 16.3586 2.86991 16.4685C2.00766 16.7221 1.10315 17.3054 0.705839 17.8718C-0.0634192 18.9369 -0.16486 20.5261 0.452237 21.7772C1.02707 22.9438 2.48105 23.899 3.71524 23.9075C3.95194 23.9075 4.01957 23.8483 4.28162 23.4172L4.57749 22.9353L4.02802 22.8762C1.82169 22.6479 0.562131 20.7797 1.37366 18.9369C1.70334 18.2014 2.09219 17.914 3.40247 17.4829L4.29007 17.187L4.33234 16.2149C4.37461 15.3357 4.40842 15.192 4.66202 14.6764C5.00861 13.9747 5.74406 13.2562 6.42033 12.935C6.8599 12.7321 7.01206 12.7067 7.84895 12.7067H8.78728L9.53963 13.0871C9.95384 13.2985 10.3173 13.476 10.3596 13.4929C10.3934 13.5098 10.4188 13.2393 10.4188 12.9012C10.4188 11.4894 10.8245 10.4243 11.6783 9.57898C12.6251 8.64911 13.6311 8.23489 14.9413 8.23489C16.2178 8.24335 17.3421 8.74209 18.1959 9.68042C19.0328 10.5934 19.2948 11.3796 19.2948 12.9519V14.0593L19.9542 13.4084C20.7911 12.5799 21.2729 12.2841 22.076 12.1065C22.617 11.9797 22.803 11.9797 23.2933 12.0643C25.3221 12.4109 26.6324 14.203 26.3111 16.1895C26.2604 16.5361 26.2266 16.832 26.2435 16.8404C26.252 16.8489 26.4971 16.9081 26.7761 16.9672C27.4185 17.1109 27.8412 17.3223 28.3061 17.7534C28.788 18.193 28.9824 18.5142 29.143 19.1313C29.4643 20.374 28.7035 21.9547 27.4693 22.6056L27.0212 22.8339L27.1988 23.3326C27.2917 23.6031 27.4016 23.8229 27.4439 23.8229C27.4777 23.8229 27.7482 23.6961 28.0272 23.544C29.05 23.0114 29.9546 21.8195 30.1997 20.6867C30.2589 20.4162 30.2927 19.8837 30.2673 19.4525C30.242 18.8016 30.1912 18.5987 29.9461 18.1084C29.5657 17.3223 28.8218 16.5953 28.0694 16.2572C27.52 16.012 27.5031 15.9951 27.4946 15.6908C27.4946 15.1329 27.2495 14.1015 27.0043 13.5943L26.7676 13.0871H27.4946C27.9173 13.0871 28.416 13.028 28.6865 12.9519C30.7323 12.3517 32.0848 10.2045 31.7298 8.125C31.417 6.31597 29.9461 4.84508 28.1709 4.55767C27.5453 4.45623 27.3763 4.45623 26.7592 4.55767ZM28.0948 5.31002C29.963 5.65661 31.2817 7.49945 30.9774 9.33383C30.6562 11.2697 28.8472 12.6053 26.9451 12.3179C25.8293 12.1404 24.7811 11.3626 24.257 10.306C24.0034 9.78186 23.9865 9.69733 23.9865 8.81818C23.9865 7.94748 24.0034 7.85449 24.257 7.32193C24.7219 6.34133 25.6264 5.60589 26.6915 5.34383C27.2241 5.20858 27.5284 5.20012 28.0948 5.31002Z" fill="black"/>
<path d="M34.046 7.38946C32.8118 7.54162 32.4145 7.61771 32.3384 7.7276C32.2201 7.88821 32.33 8.18408 32.5075 8.18408C32.9132 8.18408 36.0748 7.75296 36.134 7.69379C36.1847 7.64307 36.2016 7.52472 36.1847 7.41482C36.1509 7.14432 36.0072 7.14432 34.046 7.38946Z" fill="black"/>
<path d="M18.7454 7.81218C18.6017 7.96434 18.5932 8.01506 18.6947 8.17567C18.7538 8.26021 19.2526 8.33629 20.5629 8.44618C21.5434 8.53072 22.4057 8.57298 22.4733 8.54762C22.6086 8.4969 22.6339 8.13341 22.4987 8.05733C22.448 8.02351 21.797 7.94743 21.0447 7.8798C20.2923 7.82063 19.4977 7.753 19.2779 7.72764C18.9905 7.69383 18.8384 7.71919 18.7454 7.81218Z" fill="black"/>
<path d="M31.9749 11.2949C31.8059 11.3541 31.7382 11.4725 31.7805 11.6415C31.8312 11.8275 34.8829 13.4421 35.128 13.4083C35.4155 13.366 35.4155 13.0532 35.128 12.8588C34.6208 12.5038 32.0933 11.2527 31.9749 11.2949Z" fill="black"/>
<path d="M28.7119 13.383C28.6781 13.4506 28.9317 14.296 29.2698 15.2428C29.87 16.9334 29.8869 16.9757 30.1152 16.9757C30.2504 16.9757 30.3688 16.9165 30.4026 16.8489C30.428 16.7813 30.1744 15.9528 29.8362 15.0145C29.2529 13.383 29.2191 13.2985 28.9909 13.2731C28.8387 13.2562 28.7457 13.29 28.7119 13.383Z" fill="black"/>
<path d="M13.8593 21.0163C13.7663 22.0138 13.4113 23.2057 12.9125 24.2117C12.6589 24.7274 12.4222 25.2599 12.3969 25.4036C12.3208 25.8009 12.6167 26.3842 13.0478 26.6716C13.3606 26.8745 13.4874 26.9083 14.0115 26.9083C14.5356 26.9083 14.6624 26.8745 14.9752 26.6716C15.4147 26.3842 15.7022 25.8094 15.6345 25.3698C15.6092 25.2176 15.4486 24.8711 15.2879 24.6006C14.7216 23.6622 14.2228 22.1491 14.0876 20.9318C14.0538 20.6613 14.003 20.4415 13.9692 20.4415C13.9354 20.4415 13.8847 20.7035 13.8593 21.0163Z" fill="black"/>
<path d="M20.7066 21.5827C20.6136 22.0392 20.4192 22.6309 20.2163 23.0452C19.912 23.6876 19.8866 23.7806 19.9711 24.0427C20.2247 24.8119 21.3997 24.8542 21.7125 24.1103C21.8393 23.8144 21.8309 23.7891 21.5096 23.1128C21.2053 22.5041 20.9433 21.6334 20.8841 21.0333C20.8672 20.9149 20.7911 21.1601 20.7066 21.5827Z" fill="black"/>
<path d="M7.90814 23.6116C7.73907 25.2093 7.24032 26.7647 6.54714 27.9228C6.03149 28.7766 6.16674 29.6304 6.91064 30.1714C7.53619 30.6195 8.54214 30.6448 9.1846 30.2222C9.87778 29.7657 10.106 28.8442 9.70871 28.1342C8.75348 26.4519 8.38998 25.3445 8.0772 23.1467L8.00958 22.6817L7.90814 23.6116Z" fill="black"/>
<path d="M18.4495 25.2853C18.4495 26.1729 17.9508 27.8636 17.3928 28.8527C16.9364 29.6726 17.0124 30.239 17.6549 30.7209C18.086 31.0505 18.7707 31.0928 19.2864 30.8223C19.7682 30.5772 19.9796 30.2813 20.0303 29.791C20.0726 29.4529 20.0387 29.3345 19.7429 28.8358C19.168 27.8467 18.7876 26.714 18.6524 25.5728C18.5848 25.0317 18.4495 24.8373 18.4495 25.2853Z" fill="black"/>
<path d="M22.1199 14.2745C21.097 14.7986 20.9871 15.8553 21.8916 16.5315C22.2044 16.7513 22.8384 16.7598 23.1766 16.54L23.4217 16.3794L23.092 16.1004C22.906 15.9483 22.6863 15.8215 22.5848 15.8215C22.4918 15.8215 22.3397 15.7454 22.2467 15.6439C22.0523 15.4326 22.1452 15.2466 22.5595 15.0437C23.4217 14.5957 24.6644 15.3143 24.6644 16.2526C24.6644 17.0387 24.2079 17.622 23.5062 17.7319C23.2865 17.7657 22.6524 17.7488 22.0861 17.6897C20.6744 17.5544 19.1612 17.5713 18.4934 17.7319C17.6142 17.9348 16.8027 18.3913 16.0334 19.0929C15.0951 19.9552 14.6386 20.158 13.5312 20.2003C12.0434 20.2595 10.133 19.7269 7.69841 18.5857C6.5572 18.0447 5.88093 17.7826 5.01023 17.5629C4.91724 17.5375 5.03559 17.5375 5.26383 17.5629C5.73722 17.6136 6.41349 17.8418 7.58851 18.3321C9.1862 19.0084 10.9276 19.2704 12.2041 19.0337C13.6242 18.7717 14.8922 18.0532 15.298 17.267C15.9912 15.9398 15.0867 14.2153 13.7003 14.2153C13.1593 14.2153 12.7197 14.3844 12.39 14.7225C12.0942 15.0099 12.0688 15.086 12.0688 15.4918C12.0688 16.0835 12.2886 16.4555 12.7704 16.6668C13.4383 16.9711 13.7848 16.8697 13.7003 16.3878C13.658 16.1004 13.6327 16.0751 13.3706 16.0751C12.7873 16.0751 12.5507 15.4664 12.9987 15.1283C13.2776 14.9254 13.937 14.9085 14.2244 15.0945C14.7232 15.4241 14.9768 16.2272 14.7485 16.7682C14.5795 17.1655 14.1822 17.5206 13.5482 17.8418C11.9843 18.6111 10.0315 18.5857 8.0619 17.7488C6.01618 16.8781 5.24693 16.6922 3.99583 16.7767C2.75318 16.8612 1.56125 17.2585 0.51303 17.9517C-0.0533466 18.3152 -0.11252 18.442 0.149535 18.7801C0.242522 18.8985 0.318602 19.0253 0.318602 19.076C0.318602 19.1267 0.715911 19.169 1.3161 19.1775C3.10822 19.1944 4.74818 19.7861 6.36277 20.9865C7.38563 21.7557 7.7914 21.9924 8.61137 22.3137C10.0062 22.8716 11.8659 23.1421 13.7172 23.066C15.577 22.9899 16.5237 22.6772 17.5635 21.7811C18.1637 21.257 19.0429 20.8005 19.7529 20.6399C20.0488 20.5723 20.556 20.5469 21.2323 20.5807C22.2974 20.623 22.5003 20.6737 25.3744 21.5275C26.5748 21.8825 27.4455 21.984 28.0119 21.8234C28.8572 21.5867 29.4067 20.6652 29.3898 19.5156C29.3813 18.814 29.2884 18.5181 28.9249 17.994C27.9358 16.5907 25.5773 17.0895 25.4421 18.7294C25.3829 19.4733 25.7887 20.1665 26.3128 20.2172C26.6424 20.251 26.8284 20.2172 26.9975 20.0904C27.1496 19.9721 27.1412 19.9552 26.7185 19.5579C26.448 19.3127 26.2705 19.076 26.2705 18.9661C26.2705 18.4251 26.82 17.9686 27.3694 18.0447C28.2993 18.1715 28.7812 19.1775 28.4177 20.2426C28.3416 20.4624 28.1894 20.716 28.0711 20.809C27.5892 21.1894 27.0398 21.1302 24.901 20.4708C22.9483 19.8706 22.0861 19.6931 20.9449 19.6847C19.381 19.6762 18.1383 20.1158 17.0225 21.071C16.4138 21.5867 15.8813 21.8656 15.1797 22.0347C13.5059 22.432 10.6317 22.1869 8.89034 21.4852C8.23942 21.2232 7.73222 20.9104 6.44731 19.9552C5.59352 19.3296 4.60447 18.8393 3.64078 18.5773L2.89689 18.3659H3.70841C4.7989 18.3575 5.56816 18.5604 7.03904 19.262C11.0544 21.1555 13.8778 21.5951 15.6023 20.5892C15.8221 20.4624 16.2701 20.0989 16.5998 19.7861C17.2761 19.1436 17.9777 18.7548 18.8062 18.5604C19.2795 18.442 19.6092 18.4336 20.6913 18.4927C21.4098 18.535 22.458 18.5604 23.0159 18.5688C23.8951 18.5688 24.0726 18.5434 24.3685 18.3828C25.1124 17.9855 25.4421 17.4191 25.4928 16.4386C25.5266 15.8468 25.5012 15.6947 25.3406 15.365C24.7912 14.2153 23.2611 13.6997 22.1199 14.2745Z" fill="black"/>
</svg>
