<svg width="49" height="20" viewBox="0 0 49 20" fill="none" xmlns="http://www.w3.org/2000/svg">
<path d="M9.8179 1.25567C9.21796 4.56229 9.73418 6.45975 11.4642 7.35268C12.2316 7.74333 13.6547 7.67357 14.3244 7.19921L14.7848 6.86436L14.0732 6.62718C12.8176 6.20862 11.7433 5.25989 10.9759 3.89259L10.6829 3.34847L11.0736 3.83679C12.2734 5.30174 13.2082 5.97144 14.5197 6.32023L15.0638 6.47371L15.3289 5.88772C15.8591 4.70181 15.5661 3.46008 14.5895 2.8462C14.1988 2.60901 13.9895 2.58111 13.1943 2.65087C11.6875 2.79039 10.7666 2.19046 10.2923 0.739452L10.0551 -1.90735e-06L9.8179 1.25567Z" fill="black"/>
<path d="M36.5079 5.46916C34.8198 6.33418 34.6384 8.07818 36.1312 9.19433C36.6475 9.55708 37.6939 9.57104 38.2519 9.20828L38.6565 8.9432L38.1124 8.48278C37.8055 8.23165 37.4427 8.02237 37.2753 8.02237C37.1218 8.02237 36.8707 7.8968 36.7172 7.72938C36.3963 7.38058 36.5498 7.07364 37.2334 6.73879C38.6565 5.99933 40.7075 7.18525 40.7075 8.73392C40.7075 10.0315 39.9541 10.9941 38.7961 11.1755C38.4333 11.2313 37.3869 11.2034 36.4521 11.1058C34.1222 10.8825 31.6248 10.9104 30.5225 11.1755C29.0715 11.5104 27.7322 12.2638 26.4625 13.4218C24.9139 14.8449 24.1605 15.1797 22.3328 15.2495C19.8772 15.3471 16.7241 14.4682 12.7059 12.5847C10.8224 11.6917 9.70623 11.2592 8.26918 10.8965C8.11571 10.8546 8.31103 10.8546 8.68774 10.8965C9.46904 10.9802 10.5852 11.3569 12.5245 12.1661C15.1614 13.2823 18.0355 13.7148 20.1423 13.3241C22.4862 12.8916 24.579 11.7057 25.2487 10.4082C26.3928 8.2177 24.8999 5.3715 22.6118 5.3715C21.7189 5.3715 20.9934 5.65054 20.4492 6.20861C19.9609 6.68298 19.9191 6.80855 19.9191 7.47824C19.9191 8.45488 20.2818 9.06876 21.0771 9.41756C22.1793 9.91983 22.7513 9.75241 22.6118 8.95715C22.542 8.48278 22.5002 8.44093 22.0677 8.44093C21.105 8.44093 20.7143 7.43639 21.4538 6.87831C21.9142 6.54346 23.0024 6.51556 23.4768 6.8225C24.3 7.36663 24.7185 8.69206 24.3418 9.58499C24.0628 10.2407 23.4071 10.8267 22.3607 11.3569C19.7795 12.6265 16.5566 12.5847 13.3058 11.2034C9.92946 9.76636 8.65983 9.45942 6.59494 9.59894C4.544 9.73846 2.57678 10.3942 0.846735 11.5383C-0.0880464 12.1382 -0.18571 12.3475 0.246801 12.9056C0.400272 13.1009 0.52584 13.3102 0.52584 13.3939C0.52584 13.4776 1.18158 13.5473 2.17217 13.5613C5.12999 13.5892 7.83667 14.5658 10.5015 16.547C12.1897 17.8166 12.8594 18.2073 14.2127 18.7375C16.5148 19.6583 19.5842 20.1048 22.6397 19.9792C25.7091 19.8536 27.2717 19.3374 28.9878 17.8585C29.9784 16.9935 31.4294 16.2401 32.6014 15.975C33.0897 15.8634 33.9268 15.8215 35.043 15.8773C36.8009 15.9471 37.1358 16.0308 41.8794 17.4399C43.8606 18.0259 45.2977 18.1933 46.2325 17.9283C47.6276 17.5376 48.5345 16.0168 48.5066 14.1194C48.4927 12.9614 48.3392 12.473 47.7393 11.608C46.1069 9.292 42.2143 10.1152 41.9911 12.8218C41.8934 14.0496 42.5631 15.1937 43.4281 15.2774C43.9722 15.3332 44.2792 15.2774 44.5582 15.0681C44.8094 14.8728 44.7954 14.8449 44.0978 14.1891C43.6513 13.7845 43.3583 13.3939 43.3583 13.2125C43.3583 12.3196 44.2652 11.5662 45.1721 11.6917C46.7068 11.901 47.5021 13.5613 46.9021 15.3192C46.7766 15.682 46.5254 16.1006 46.3301 16.254C45.5349 16.8819 44.628 16.7842 41.0981 15.6959C37.8752 14.7054 36.4521 14.4124 34.5686 14.3984C31.9875 14.3845 29.9366 15.11 28.0949 16.6865C27.0904 17.5376 26.2114 17.998 25.0534 18.2771C22.2909 18.9328 17.5472 18.5282 14.6731 17.3702C13.5988 16.9377 12.7617 16.4214 10.641 14.8449C9.23186 13.8124 7.59948 13.0032 6.00896 12.5707L4.78119 12.2219H6.12058C7.92038 12.208 9.19001 12.5428 11.6176 13.7008C18.2448 16.8261 22.9048 17.5516 25.751 15.8913C26.1137 15.682 26.8532 15.0821 27.3973 14.5658C28.5135 13.5055 29.6715 12.8637 31.0388 12.5428C31.8201 12.3475 32.3642 12.3335 34.1501 12.4312C35.336 12.5009 37.066 12.5428 37.9868 12.5568C39.4379 12.5568 39.7308 12.5149 40.2192 12.2498C41.4469 11.5941 41.9911 10.6593 42.0748 9.04086C42.1306 8.06422 42.0887 7.81309 41.8236 7.26896C40.9168 5.3715 38.3915 4.52043 36.5079 5.46916Z" fill="black"/>
</svg>
