<svg width="50" height="29" viewBox="0 0 50 29" fill="none" xmlns="http://www.w3.org/2000/svg">
<path d="M24.7511 0.951435C24.1963 1.15058 24.1821 1.30705 24.1821 6.85471V12.2317L24.5377 12.4593C24.9075 12.7011 25.32 12.6442 25.6757 12.2886C25.8606 12.1036 25.889 11.3071 25.889 6.76936C25.889 2.74375 25.8464 1.42085 25.7183 1.25016C25.505 0.979885 25.0498 0.851862 24.7511 0.951435Z" fill="black"/>
<path d="M8.57752 6.71255C8.40682 6.9117 8.34992 7.18197 8.37837 7.56604C8.39259 7.83631 14.9502 15.4323 15.3627 15.6457C15.7326 15.8448 16.3158 15.603 16.5149 15.1763C16.643 14.906 16.6145 14.7353 16.4438 14.4224C16.3158 14.1948 14.7653 12.3456 12.973 10.3114C9.98577 6.88325 9.70127 6.61298 9.23185 6.5703C8.93313 6.54185 8.66286 6.61298 8.57752 6.71255Z" fill="black"/>
<path d="M37.1266 10.3256C35.1351 12.2602 33.4139 14.0099 33.3001 14.2375C33.1294 14.5788 33.1294 14.6784 33.3428 14.9914C33.5135 15.2616 33.6984 15.3612 34.054 15.3612C34.4808 15.3612 34.8506 15.0625 37.4964 12.502C41.7638 8.4053 42.1052 8.04968 42.1052 7.65139C42.1052 7.18197 41.6927 6.82636 41.1664 6.82636C40.825 6.82636 40.1707 7.39535 37.1266 10.3256Z" fill="black"/>
<path d="M22.6316 14.5076C17.6529 15.546 13.8122 19.3867 12.8165 24.28C12.6458 25.0624 12.5178 25.8874 12.5178 26.0866V26.4564H6.25889H0V27.4521V28.4479L25.0071 28.4194L50 28.3768V27.4521V26.5275L43.7838 26.4849L37.5676 26.4564L37.4822 25.7736C37.1835 23.4692 36.5718 21.6911 35.5334 20.0979C33.8265 17.4806 31.3514 15.6314 28.4211 14.7779C27.2546 14.4365 23.7553 14.28 22.6316 14.5076ZM27.9516 16.6413C31.4225 17.7366 33.8976 20.1691 35.0498 23.6115C35.2347 24.1947 35.4481 25.0766 35.505 25.5603L35.6046 26.4564H24.9787H14.367L14.4523 25.8447C15.1494 20.9941 18.3215 17.4521 22.9018 16.428C24.2248 16.1292 26.6572 16.2288 27.9516 16.6413Z" fill="black"/>
<path d="M0.227593 19.0879C-0.0711263 19.5005 -0.0569015 19.9557 0.256043 20.2401C0.398291 20.3682 2.46088 20.8803 5.61877 21.5346C10.6828 22.6015 10.7397 22.6157 11.0953 22.3454C11.2944 22.2032 11.4651 21.9329 11.4936 21.748C11.5789 20.9941 11.4367 20.9514 6.17354 19.8276C3.44239 19.2586 1.0384 18.775 0.825033 18.775C0.583212 18.775 0.355616 18.8888 0.227593 19.0879Z" fill="black"/>
<path d="M43.3997 19.8419C38.293 20.923 38.1223 20.9799 38.1223 21.6769C38.1223 21.8476 38.1792 22.0468 38.2361 22.1463C38.5491 22.63 39.0043 22.5873 44.0967 21.5204C49.3883 20.4251 49.6444 20.3398 49.6444 19.6143C49.6444 19.216 49.1323 18.7751 48.6913 18.7893C48.4637 18.7893 46.0882 19.2729 43.3997 19.8419Z" fill="black"/>
</svg>
