<svg width="50" height="17" viewBox="0 0 50 17" fill="none" xmlns="http://www.w3.org/2000/svg">
<path d="M0 0.658751C0 1.28749 0.0299401 1.3324 0.538922 1.46713C0.898204 1.57192 1.48204 1.99109 2.17066 2.67971C3.48802 3.93719 4.23653 4.32642 5.46407 4.32642C6.69162 4.32642 7.48503 3.92222 8.75748 2.69468C10.5838 0.913242 11.512 0.913242 13.3234 2.69468C14.5808 3.92222 15.3293 4.31145 16.4521 4.32642C17.7994 4.32642 18.3533 4.07192 19.7006 2.81444C21.7365 0.898272 22.5898 0.868332 24.4461 2.69468C25.7784 3.99707 26.4371 4.32642 27.7096 4.32642C28.997 4.31145 29.6407 3.99707 30.9431 2.70965C32.7695 0.913242 33.7126 0.913242 35.5539 2.69468C36.8263 3.92222 37.6198 4.32642 38.8473 4.32642C40.0748 4.32642 40.7934 3.95216 42.1856 2.6348C43.997 0.913242 44.8204 0.913242 46.6317 2.67971C47.7844 3.78749 48.7126 4.31145 49.521 4.32642C49.985 4.32642 50 4.31145 50 3.72761C50 3.11384 49.9701 3.0839 49.2216 2.91923C48.997 2.85935 48.2485 2.29049 47.5599 1.64678C46.1826 0.35935 45.5988 0.0749187 44.3114 0.089889C43.1737 0.089889 42.5 0.41923 41.3473 1.52701C39.9701 2.82941 39.7305 2.97911 38.8772 2.97911C37.9491 2.97911 37.7245 2.85935 36.4222 1.61684C35.1497 0.37432 34.5359 0.089889 33.2335 0.089889C31.991 0.0749187 31.2874 0.4342 30 1.72163C28.9222 2.7845 28.5778 2.97911 27.6796 2.97911C26.8862 2.97911 26.6168 2.81444 25.4491 1.70666C24.1317 0.44917 23.3832 0.0749187 22.1557 0.0749187C20.8982 0.0749187 20.2844 0.37432 18.9371 1.64678C17.6946 2.82941 17.4251 2.97911 16.6317 2.97911C15.7335 2.97911 15.3293 2.76953 14.2964 1.72163C13.0539 0.44917 12.3353 0.0749187 11.0778 0.089889C9.77545 0.089889 9.16168 0.37432 7.88922 1.61684C6.58683 2.85935 6.36228 2.97911 5.41916 2.97911C4.58084 2.97911 3.99701 2.61983 2.84431 1.40725C2.08084 0.628811 1.39222 0.224619 0.568862 0.089889L0 6.86646e-05V0.658751Z" fill="black"/>
<path d="M0 6.79639C0 7.38022 0.0449102 7.47004 0.314371 7.47004C0.793413 7.47004 1.1976 7.7395 2.3503 8.83232C3.63772 10.0748 4.23653 10.3593 5.53892 10.3593C6.76647 10.3593 7.48503 10.015 8.56287 8.8922C9.64072 7.76944 10.1347 7.47004 10.988 7.47004C11.8862 7.47004 12.1257 7.60477 13.3982 8.80238C14.7455 10.0748 15.3593 10.3742 16.6168 10.3593C17.8892 10.3593 18.5629 10.015 19.9251 8.66765C21.0479 7.55986 21.497 7.36525 22.6347 7.51495C23.1138 7.57483 23.4281 7.78441 24.2964 8.63771C25.7036 9.98501 26.4222 10.3593 27.6946 10.3593C28.9371 10.3593 29.6856 9.99998 30.988 8.7425C32.1707 7.60477 32.4251 7.47004 33.3234 7.47004C34.1766 7.47004 34.6707 7.76944 35.7784 8.90717C36.7814 9.95507 37.6347 10.3742 38.8473 10.3593C40.0748 10.3593 40.7036 10.0449 41.9611 8.83232C43.2485 7.60477 43.488 7.47004 44.3862 7.47004C45.2844 7.47004 45.524 7.60477 46.8114 8.83232C47.9192 9.91016 48.503 10.2545 49.4012 10.3443C49.9102 10.3892 49.9251 10.3742 49.9701 9.77543C50.015 9.17663 50 9.16166 49.3713 8.98202C48.9371 8.84729 48.4132 8.47304 47.6796 7.75447C46.4072 6.52693 45.6138 6.12274 44.3862 6.12274C43.1737 6.12274 42.4102 6.49699 41.1826 7.69459C39.2814 9.52094 38.4581 9.55088 36.6467 7.81435C35.2395 6.48202 34.5509 6.13771 33.2635 6.12274C31.991 6.12274 31.482 6.37723 30.1048 7.67962C28.1587 9.53591 27.2455 9.55088 25.4042 7.75447C24.0719 6.45208 23.4132 6.12274 22.1407 6.12274C20.8383 6.13771 20.1647 6.46705 18.8772 7.75447C17.0808 9.56585 16.1677 9.55088 14.2066 7.67962C12.8293 6.37723 12.3204 6.12274 11.0479 6.12274C9.76048 6.13771 9.07186 6.48202 7.66467 7.81435C6.73653 8.71256 6.37725 8.95208 5.88323 9.02693C5.01497 9.17663 4.29641 8.83232 3.14371 7.69459C2.14072 6.70657 1.13772 6.13771 0.419162 6.12274C0.0299401 6.12274 0 6.16765 0 6.79639Z" fill="black"/>
<path d="M0 13.3832C0 13.9671 0.0449102 14.0569 0.314371 14.0569C0.793413 14.0569 1.1976 14.3263 2.3503 15.4192C3.59281 16.6317 4.22156 16.9311 5.46407 16.9461C6.67665 16.9611 7.52994 16.5569 8.53293 15.494C9.64072 14.3563 10.1347 14.0569 10.988 14.0569C11.8862 14.0569 12.1407 14.1916 13.3234 15.3293C14.6257 16.5868 15.3743 16.9461 16.6168 16.9461C17.8892 16.9461 18.5778 16.5868 19.9102 15.2545C21.0329 14.1168 21.3473 13.982 22.4701 14.0868C23.1437 14.1617 23.3084 14.2515 24.2964 15.2096C25.7036 16.5719 26.4222 16.9461 27.6946 16.9461C28.9371 16.9461 29.6856 16.5868 30.988 15.3293C32.1856 14.1916 32.4251 14.0569 33.3383 14.0569C34.1916 14.0569 34.4311 14.2066 35.8533 15.5539C37.021 16.6766 37.6647 16.9611 38.9222 16.9461C40.1048 16.9311 40.7485 16.6018 41.9611 15.4192C43.2485 14.1916 43.488 14.0569 44.3862 14.0569C45.2844 14.0569 45.5389 14.1916 46.7066 15.3293C47.7695 16.3623 48.5928 16.8563 49.4012 16.9311C49.9251 16.976 49.9251 16.9611 49.9701 16.3473C50.015 15.7186 50.015 15.7186 49.3862 15.5539C48.9222 15.4192 48.4431 15.0898 47.6796 14.3563C46.4072 13.1138 45.6138 12.7096 44.3862 12.7096C43.1737 12.7096 42.4102 13.0838 41.1826 14.2814C39.2814 16.1078 38.4581 16.1377 36.6467 14.4012C35.2395 13.0689 34.5509 12.7245 33.2635 12.7096C31.991 12.7096 31.482 12.9641 30.1048 14.2665C28.1737 16.1078 27.2305 16.1377 25.4341 14.3563C24.1018 13.0539 23.4132 12.7096 22.1407 12.7096C20.8533 12.7245 20.1647 13.0539 18.8623 14.3413C17.0359 16.1377 16.1527 16.1227 14.2066 14.2665C12.8293 12.9641 12.3204 12.7096 11.0479 12.7096C9.77545 12.7245 9.04192 13.0838 7.70958 14.3563C5.92814 16.0928 5.02994 16.0928 3.21856 14.3563C2.08084 13.2485 1.16766 12.7096 0.449102 12.7096C0.0149701 12.7096 0 12.7395 0 13.3832Z" fill="black"/>
</svg>
