<svg width="160" height="83" viewBox="0 0 160 83" fill="none" xmlns="http://www.w3.org/2000/svg">
<path d="M101.161 0.352158C94.8298 1.20149 88.8073 5.44817 85.989 11.1233L84.8695 13.401L82.9778 11.8568C78.0362 7.91896 73.056 6.14308 66.8018 6.14308C60.8564 6.14308 56.5326 7.49429 51.8226 10.7372C47.7304 13.5555 43.7925 19.1533 42.5571 24.0177C42.2097 25.2917 41.8622 26.3727 41.785 26.4885C41.6692 26.5657 40.511 26.4499 39.237 26.1797C37.8472 25.9094 35.4922 25.8322 33.6777 25.948C23.756 26.5657 15.8417 34.0553 14.3747 44.1701L13.8728 47.5288L11.9039 48.2238C4.91618 50.6945 1.20999 54.9026 0.206235 61.5815C-1.18359 70.5767 4.56873 78.7998 13.9114 81.232C15.8803 81.7339 19.7795 81.8111 40.2408 81.8111C53.4441 81.7725 76.3761 81.8883 91.2009 82.0427C121.198 82.3516 121.661 82.313 126.062 79.8036C128.88 78.2207 132.123 74.8234 133.668 71.9279C134.98 69.4957 136.1 65.5579 136.1 63.3573V62.122H140.269C142.547 62.122 145.442 61.9289 146.716 61.7359C149.689 61.2726 153.279 59.4967 155.094 57.605C162.777 49.6908 161.232 37.6843 151.89 32.9357C150.114 32.0478 150.114 32.0092 149.844 29.6542C149.11 23.207 145.404 17.9952 139.652 15.2927C137.451 14.2504 136.524 14.0573 133.397 13.9415C130.27 13.7871 129.305 13.9415 126.95 14.7136L124.209 15.6402L123.746 14.0573C122.163 8.72969 116.99 3.36343 111.546 1.47173C109.693 0.81543 104.906 -0.0725098 103.864 0.00469971C103.671 0.0433121 102.435 0.197731 101.161 0.352158ZM110.697 6.79939C113.978 8.34363 116.526 10.853 118.071 14.1731C119.306 16.7212 119.306 16.837 119.229 22.1646L119.19 27.5309L122.202 24.4038C126.217 20.1957 128.301 19.1147 132.432 19.1147C135.057 19.0761 135.868 19.2306 137.721 20.1571C140.115 21.3153 142.161 23.3614 143.512 25.9094C144.284 27.3764 144.4 28.11 144.361 31.8934V36.1786L146.523 36.6033C150.847 37.4526 153.859 40.3095 154.708 44.4017C155.519 48.3396 153.279 52.9723 149.419 55.3659C147.566 56.5241 147.489 56.5241 141.35 56.6399L135.135 56.7557L134.015 54.6324C132.625 51.8913 128.842 48.3396 125.753 46.8725C123.398 45.753 123.36 45.6757 123.36 44.1315C123.321 36.1014 118.495 28.496 111.276 25.0987C107.763 23.4772 105.292 23.014 101.007 23.207C97.4937 23.4 96.1424 23.7475 91.8572 25.6778C91.2395 25.948 89.2319 20.1185 89.2706 18.111C89.2706 14.7136 92.3976 9.81066 95.8722 7.80315C99.1151 5.87284 101.238 5.33235 104.829 5.48678C107.531 5.56399 108.574 5.79562 110.697 6.79939ZM71.4345 11.741C76.3761 13.015 80.9316 16.2579 83.5955 20.4273C85.7574 23.7861 86.3751 26.4885 86.3365 32.3566L86.2979 37.5299L89.7724 34.1711C93.5944 30.4649 95.9108 29.1523 99.81 28.4574C110.195 26.5271 119.615 36.2559 117.8 47.027C117.453 48.9959 117.453 49.8838 117.723 49.961C117.955 50.0382 119.113 50.2699 120.31 50.5015C124.479 51.3508 127.992 54.0533 129.846 57.8753C133.089 64.5155 128.417 74.2057 120.85 76.522C119.268 76.9853 106.605 77.0239 40.0477 76.5992L15.224 76.4834L12.8304 75.3252C9.54892 73.8196 7.81164 72.1981 6.38321 69.3799C5.45667 67.4496 5.22503 66.523 5.22503 64.4769C5.22503 58.3772 7.77303 55.1342 14.1817 53.0495C20.0498 51.1578 19.3935 51.8913 19.5479 46.9497C19.7023 42.9733 19.8181 42.3942 20.9377 40.0779C23.8718 34.1325 30.7823 30.2333 37.0365 31.0054C38.3877 31.1985 40.4724 31.932 42.7502 33.0901C44.7191 34.0553 46.4564 34.9432 46.6494 35.0205C46.8038 35.0977 46.9196 33.5148 46.9196 31.5459C46.9196 25.2531 48.5025 21.1995 52.5175 17.1072C57.3819 12.1656 64.8329 10.0423 71.4345 11.741Z" fill="black"/>
</svg>
