<svg width="50" height="28" viewBox="0 0 50 28" fill="none" xmlns="http://www.w3.org/2000/svg">
<path d="M24.7511 27.4966C24.1963 27.2974 24.1821 27.1409 24.1821 21.5933V16.2163L24.5377 15.9887C24.9075 15.7469 25.32 15.8038 25.6757 16.1594C25.8606 16.3444 25.889 17.1409 25.889 21.6786C25.889 25.7042 25.8464 27.0271 25.7183 27.1978C25.505 27.4681 25.0498 27.5961 24.7511 27.4966Z" fill="black"/>
<path d="M8.57752 21.7353C8.40682 21.5362 8.34992 21.2659 8.37837 20.8818C8.39259 20.6116 14.9502 13.0156 15.3627 12.8022C15.7326 12.603 16.3158 12.8449 16.5149 13.2716C16.643 13.5419 16.6145 13.7126 16.4438 14.0255C16.3158 14.2531 14.7653 16.1023 12.973 18.1365C9.98577 21.5646 9.70127 21.8349 9.23185 21.8776C8.93313 21.906 8.66286 21.8349 8.57752 21.7353Z" fill="black"/>
<path d="M37.1266 18.1222C35.1351 16.1877 33.4139 14.438 33.3001 14.2104C33.1294 13.869 33.1294 13.7695 33.3428 13.4565C33.5135 13.1862 33.6984 13.0867 34.054 13.0867C34.4808 13.0867 34.8506 13.3854 37.4964 15.9458C41.7638 20.0426 42.1052 20.3982 42.1052 20.7965C42.1052 21.2659 41.6927 21.6215 41.1664 21.6215C40.825 21.6215 40.1707 21.0525 37.1266 18.1222Z" fill="black"/>
<path d="M22.6316 13.9403C17.6529 12.9018 13.8122 9.06117 12.8165 4.16785C12.6458 3.38549 12.5178 2.56046 12.5178 2.36131V1.99147H6.25889H0V0.995733V0L25.0071 0.0284495L50 0.0711238V0.995733V1.92034L43.7838 1.96302L37.5676 1.99147L37.4822 2.67425C37.1835 4.97866 36.5718 6.75676 35.5334 8.34993C33.8265 10.9673 31.3514 12.8165 28.4211 13.67C27.2546 14.0114 23.7553 14.1679 22.6316 13.9403ZM27.9516 11.8065C31.4225 10.7112 33.8976 8.2788 35.0498 4.83642C35.2347 4.2532 35.4481 3.37127 35.505 2.88762L35.6046 1.99147H24.9787H14.367L14.4523 2.60313C15.1494 7.45377 18.3215 10.9957 22.9018 12.0199C24.2248 12.3186 26.6572 12.2191 27.9516 11.8065Z" fill="black"/>
<path d="M0.22759 9.35993C-0.0711301 8.94741 -0.0569054 8.49222 0.256039 8.20773C0.398287 8.0797 2.46088 7.56761 5.61877 6.91328C10.6828 5.84642 10.7397 5.83219 11.0953 6.10246C11.2944 6.24471 11.4651 6.51498 11.4936 6.6999C11.5789 7.45382 11.4367 7.49649 6.17354 8.62025C3.44238 9.18924 1.0384 9.67288 0.825029 9.67288C0.583208 9.67288 0.355612 9.55908 0.22759 9.35993Z" fill="black"/>
<path d="M43.3997 8.60596C38.293 7.52488 38.1223 7.46798 38.1223 6.77096C38.1223 6.60027 38.1792 6.40112 38.2361 6.30155C38.5491 5.81791 39.0042 5.86058 44.0967 6.92744C49.3883 8.02274 49.6444 8.10809 49.6444 8.83355C49.6444 9.23185 49.1323 9.67281 48.6913 9.65859C48.4637 9.65859 46.0882 9.17495 43.3997 8.60596Z" fill="black"/>
</svg>
