<svg width="160" height="152" viewBox="0 0 160 152" fill="none" xmlns="http://www.w3.org/2000/svg">
<path d="M73.3612 0.404625C64.2433 1.96896 55.8853 8.13692 52.0862 16.0927C51.1029 18.1487 50.0749 20.9198 49.762 22.216C49.2704 24.3613 49.0916 24.5848 48.2424 24.3613C42.0297 22.6182 36.3981 23.1099 30.7665 25.8363C22.8107 29.6354 17.8048 36.742 16.8215 45.681L16.464 48.7203L12.8436 50.1506C6.76508 52.6088 3.7258 55.3799 1.49103 60.3858C0.284253 63.1122 -0.296787 68.1628 0.150167 71.5149C1.31225 79.6048 8.15064 86.6667 16.5981 88.4098C20.3525 89.2143 20.4866 89.1249 22.2297 86.2644C24.0175 83.3592 24.1516 83.0016 23.1683 83.3592C22.185 83.7615 17.045 82.7782 14.6762 81.7502C11.8157 80.4987 8.06124 76.8337 6.80977 74.0179C5.42422 70.8445 5.37952 65.928 6.80977 62.7546C8.64228 58.6427 10.9664 56.9443 17.7601 54.7095L22.2744 53.2345L22.5425 48.4074C22.9001 41.8819 23.9281 39.2896 27.6825 35.267C30.8559 31.9148 34.0292 30.2164 38.5882 29.3672C42.3426 28.6521 45.9182 29.4119 50.79 31.8255L54.6785 33.8368V30.6187C54.7232 18.4169 61.651 9.2543 73.0036 6.3938C78.2329 5.05294 85.7418 6.17033 90.3901 8.98613C95.396 11.9807 99.1057 16.5843 100.759 21.8137C101.564 24.2719 101.698 25.7469 101.653 30.7975L101.564 36.7866L105.542 32.8981C108.447 30.0823 110.324 28.6521 112.514 27.6241C122.124 23.1099 133.745 27.8476 137.857 37.9487C138.929 40.5857 139.287 46.3961 138.572 49.6589C138.259 51.2232 138.304 51.3573 139.466 51.6255C147.6 53.4133 152.025 57.0336 153.723 63.291C154.662 66.8219 154.17 70.2635 152.114 74.4648C150.595 77.5488 146.751 81.3479 144.293 82.2418C143.443 82.5547 142.728 82.9569 142.728 83.1357C142.728 83.3592 143.443 85.5046 144.293 87.8734C144.427 88.2757 144.874 88.2757 146.17 87.7394C155.154 83.9402 161.322 72.9452 159.757 63.5145C158.64 56.8996 154.528 51.4914 148.36 48.4074L144.963 46.7537V44.6977C144.918 38.4851 142.281 32.183 137.812 27.6241C134.281 24.0485 130.973 22.1266 126.37 20.9645C120.559 19.4448 114.57 20.0259 109.654 22.5288C108 23.378 107.374 23.5121 107.24 23.1099C104.693 15.02 103.039 12.1595 98.5246 7.91344C91.865 1.70079 82.479 -1.11502 73.3612 0.404625Z" fill="black"/>
<path d="M108.179 67.8054C107.464 68.6099 107.464 68.6993 108.224 69.3698C109.028 70.0849 109.117 70.0849 109.788 69.3251C110.503 68.5205 110.503 68.4311 109.743 67.7607C108.939 67.0456 108.849 67.0456 108.179 67.8054Z" fill="black"/>
<path d="M107.106 70.8893C108.045 71.9173 108.313 72.6324 108.313 74.1074V76.0293L107.196 75.3142C106.123 74.599 106.078 74.6437 106.078 75.4036C106.078 76.8338 105.497 76.8785 104.201 75.627C103.307 74.7778 102.949 73.9733 102.905 72.8559L102.86 71.2469L102.279 72.5877C101.921 73.3923 101.028 74.1968 99.9996 74.6884L98.2565 75.4483L100.089 75.4929C101.475 75.4929 102.145 75.7611 103.084 76.7444C104.335 78.0406 104.29 78.6216 102.86 78.6216C101.877 78.6216 101.832 78.9792 102.815 80.0519C103.486 80.8117 103.441 80.8564 101.609 80.8564C100.089 80.8564 99.3739 80.5882 98.3459 79.6049L97.0497 78.3981L97.4073 79.5155C97.8542 80.9011 97.8542 82.5995 97.3626 83.7616C97.0944 84.4767 97.2732 84.432 98.3459 83.404C99.3292 82.5101 100.089 82.1973 101.519 82.1973C103.396 82.1973 103.396 82.1973 102.726 83.2252C101.966 84.3873 102.19 84.879 103.486 84.879C104.603 84.879 104.514 85.4153 103.039 86.8009C102.324 87.516 101.251 88.0076 100.447 88.0523L99.1504 88.097L100.357 88.5887C101.072 88.8569 101.787 89.7061 102.19 90.6447L102.86 92.2537L102.905 90.4212C102.949 89.0356 103.262 88.3205 104.246 87.3819L105.542 86.1304L105.855 87.5607C106.123 88.8569 106.212 88.9016 106.927 88.2758C108.089 87.2031 108.313 87.3819 108.313 89.4379C108.313 90.7341 108 91.628 107.33 92.3878C106.391 93.4158 106.391 93.5052 107.196 93.1476C108.358 92.656 110.056 92.656 111.218 93.1476C111.933 93.4158 111.889 93.237 110.905 92.1643C109.922 91.181 109.654 90.4212 109.654 88.9462C109.654 87.069 109.654 87.069 110.637 87.7395C112.023 88.7228 112.336 88.6334 112.336 87.2478V86.0411L113.9 87.5607C114.973 88.5887 115.464 89.4826 115.509 90.4212L115.554 91.8068L116.001 90.5553C116.269 89.7955 117.029 88.9909 117.878 88.6334L119.263 88.0523L117.878 88.0076C116.939 88.0076 116.09 87.5607 115.062 86.488L113.632 85.0131L114.749 84.7002C115.956 84.3873 116.269 83.8063 115.464 83.3146C114.526 82.7336 115.107 82.1973 116.671 82.1973C117.878 82.1973 118.682 82.5548 119.621 83.404L120.917 84.6555L120.559 83.5381C120.113 82.1526 120.113 80.9011 120.604 79.739C120.962 78.9345 120.872 78.9345 119.844 79.8284C119.085 80.5435 118.191 80.8564 116.894 80.8564C114.883 80.8564 114.794 80.767 115.464 79.5155C115.822 78.8451 115.688 78.6663 114.704 78.4428L113.542 78.13L114.838 76.7891C115.777 75.8058 116.492 75.4929 117.878 75.4483L119.71 75.4036L118.101 74.7331C116.939 74.2862 116.313 73.6604 116.001 72.6771L115.554 71.2469L115.509 72.8559C115.464 74.018 115.062 74.7778 113.9 75.9399L112.336 77.4595V76.2975C112.336 74.8225 111.71 74.3756 110.995 75.2695C110.056 76.3869 109.654 76.0293 109.654 74.0627C109.654 72.6324 109.967 71.8726 110.905 70.8893L112.112 69.5932L110.682 70.3083C109.386 70.934 109.117 70.934 107.553 70.3083L105.855 69.5932L107.106 70.8893ZM108.313 78.8898C108.313 79.2474 108.134 79.4261 107.866 79.2921C107.642 79.158 107.419 78.8451 107.419 78.5769C107.419 78.3534 107.642 78.1747 107.866 78.1747C108.134 78.1747 108.313 78.4875 108.313 78.8898ZM110.995 78.5769C110.995 78.8004 110.682 79.2027 110.324 79.5155C109.743 79.9625 109.654 79.9178 109.654 79.1133C109.654 78.5769 109.922 78.1747 110.324 78.1747C110.682 78.1747 110.995 78.3534 110.995 78.5769ZM112.514 80.186C112.693 80.6329 112.47 80.8564 111.799 80.8564C111.039 80.8564 110.995 80.767 111.442 80.186C111.754 79.8284 112.067 79.5155 112.112 79.5155C112.201 79.5155 112.336 79.8284 112.514 80.186ZM106.749 80.4094C106.883 80.6329 106.704 80.8564 106.346 80.8564C105.944 80.8564 105.631 80.6329 105.631 80.4094C105.631 80.1413 105.81 79.9625 106.033 79.9625C106.302 79.9625 106.615 80.1413 106.749 80.4094ZM106.972 82.8677C106.436 83.5381 105.631 83.404 105.631 82.5995C105.631 82.376 106.078 82.1973 106.57 82.1973C107.374 82.1973 107.419 82.2866 106.972 82.8677ZM112.514 82.8677C112.336 83.2252 112.067 83.5381 111.889 83.5381C111.71 83.5381 111.442 83.2252 111.263 82.8677C111.084 82.4207 111.308 82.1973 111.889 82.1973C112.47 82.1973 112.693 82.4207 112.514 82.8677ZM110.995 84.432C110.995 84.6108 110.682 84.879 110.324 85.0578C109.833 85.2365 109.654 84.9684 109.654 84.1192C109.654 83.1805 109.743 83.0465 110.324 83.5381C110.682 83.851 110.995 84.2532 110.995 84.432ZM108.313 84.5214C108.313 85.2365 108.179 85.3706 107.821 85.0131C107.553 84.7449 107.464 84.2979 107.598 84.0298C108.089 83.2699 108.313 83.4487 108.313 84.5214Z" fill="black"/>
<path d="M98.9268 72.5877C98.9268 73.4816 99.1503 73.7051 100.044 73.7051C100.938 73.7051 101.162 73.4816 101.162 72.5877C101.162 71.6938 100.938 71.4703 100.044 71.4703C99.1503 71.4703 98.9268 71.6938 98.9268 72.5877Z" fill="black"/>
<path d="M116.805 72.5877C116.805 73.4816 117.029 73.7051 117.922 73.7051C118.816 73.7051 119.04 73.4816 119.04 72.5877C119.04 71.6938 118.816 71.4703 117.922 71.4703C117.029 71.4703 116.805 71.6938 116.805 72.5877Z" fill="black"/>
<path d="M70.9923 79.0238C70.7241 79.5155 71.3946 80.0518 71.8415 79.6495C72.2438 79.2473 72.1544 78.6216 71.7074 78.6216C71.4393 78.6216 71.1711 78.8003 70.9923 79.0238Z" fill="black"/>
<path d="M70.7241 80.5434C71.484 81.3032 71.3499 82.7782 70.5454 82.4653C70.1878 82.3312 69.8749 82.4206 69.8749 82.6888C69.8749 83.3145 68.981 82.6888 68.6235 81.7949C68.3106 81.0797 68.2659 81.1244 67.5508 81.8396C66.925 82.4653 66.8803 82.6441 67.372 82.6441C67.6849 82.6441 68.2212 82.957 68.5341 83.3145C68.981 83.8509 68.981 83.9849 68.5341 83.9849C68.2212 83.9849 68.0871 84.2978 68.2659 84.6554C68.5788 85.4599 67.1932 85.594 66.3887 84.7895C65.9864 84.3872 65.8523 84.3872 65.8523 84.7895C65.8523 85.1023 65.6289 85.2811 65.3607 85.1917C65.0925 85.147 64.7797 85.3258 64.6456 85.594C64.4221 86.2197 66.2099 86.7561 66.5675 86.175C66.9697 85.4599 68.6682 85.6834 68.4 86.3985C68.2659 86.7561 68.3553 87.1583 68.6682 87.2924C69.0257 87.4265 68.7575 87.8734 67.9977 88.5439C66.7463 89.6166 66.344 90.6892 67.1932 90.6892C67.4614 90.6892 67.6402 90.4211 67.6402 90.1082C67.6402 89.7506 67.8189 89.7953 68.0871 90.2423C68.4447 90.7786 68.5341 90.7339 68.5341 89.9741C68.5341 89.4378 68.8469 88.7673 69.2045 88.4545C69.7408 88.0075 69.8749 88.0075 69.8749 88.4545C69.8749 88.7673 70.1878 88.9014 70.5454 88.7227C71.3499 88.4098 71.484 89.7953 70.6794 90.5999C70.2772 91.0021 70.2772 91.1362 70.6794 91.1362C70.9923 91.1362 71.1711 91.3597 71.1264 91.6279C71.037 91.896 71.2605 92.2536 71.618 92.3877C72.065 92.5218 72.1544 92.3877 71.9756 91.8513C71.7968 91.4491 71.9309 91.1362 72.1991 91.1362C72.6013 91.1362 72.6013 91.0021 72.1991 90.5999C71.3946 89.7953 71.5287 88.3204 72.3332 88.6333C72.6907 88.7673 73.0036 88.6333 73.0036 88.3204C73.0036 88.0075 73.6293 88.4545 74.3892 89.3037C75.3725 90.3317 75.9088 90.6446 76.2217 90.3317C76.5792 89.9741 76.2664 89.4825 75.2831 88.6333C74.2998 87.8287 73.9869 87.3371 74.3892 87.1136C74.6573 86.9348 74.7467 86.5326 74.6126 86.2644C74.121 85.4599 75.73 85.6834 76.6686 86.5326C77.4731 87.2477 77.4731 87.2477 77.205 86.5326C76.9815 85.9515 77.1156 85.8175 77.6966 86.0409C78.2777 86.2644 78.4117 86.175 78.2777 85.7281C78.1436 85.3705 77.786 85.147 77.5178 85.1917C77.2497 85.2811 77.0262 85.1023 77.0262 84.7895C77.0262 84.3872 76.8921 84.3872 76.4898 84.7895C75.6853 85.594 74.2998 85.4599 74.6126 84.6554C74.7914 84.2978 74.6573 83.9849 74.3445 83.9849C73.8975 83.9849 73.8975 83.8509 74.3445 83.3145C74.6573 82.957 75.2384 82.6441 75.6406 82.6441C76.2664 82.6441 76.2664 82.5547 75.6853 82.1971C75.1043 81.8396 75.149 81.7502 75.8194 81.7502C76.2217 81.7502 76.5792 81.5267 76.5792 81.3032C76.5792 80.454 75.5065 80.8563 74.4339 82.063C73.7634 82.8676 73.3165 83.1357 73.1824 82.7782C73.0483 82.4653 72.646 82.3759 72.2885 82.51C71.5734 82.7782 71.3946 81.3032 72.065 80.5881C72.3332 80.3646 72.1097 80.1411 71.3499 80.0965C70.5454 80.0518 70.3666 80.1858 70.7241 80.5434Z" fill="black"/>
<path d="M95.2171 80.767C94.502 81.5715 94.502 81.6609 95.3512 82.4207C96.2004 83.2252 96.3345 83.2252 97.0049 82.5101C97.7201 81.795 97.7201 81.7056 96.8709 80.8564C95.977 79.9625 95.9323 79.9625 95.2171 80.767Z" fill="black"/>
<path d="M121.14 80.767C120.425 81.5715 120.425 81.6609 121.185 82.3313C121.99 83.0464 122.079 83.0464 122.75 82.2866C123.465 81.4821 123.465 81.3927 122.705 80.7223C121.9 80.0071 121.811 80.0071 121.14 80.767Z" fill="black"/>
<path d="M66.7462 81.3033C66.7462 81.5268 66.9697 81.7502 67.1932 81.7502C67.4613 81.7502 67.6401 81.5268 67.6401 81.3033C67.6401 81.0351 67.4613 80.8563 67.1932 80.8563C66.9697 80.8563 66.7462 81.0351 66.7462 81.3033Z" fill="black"/>
<path d="M39.2585 82.1971C39.0797 82.51 39.1244 82.9123 39.3926 83.1804C40.0184 83.8062 41.4039 83.2698 41.1804 82.51C40.9123 81.7949 39.6608 81.5714 39.2585 82.1971Z" fill="black"/>
<path d="M38.4987 84.5662C39.5714 85.6835 39.9737 89.1251 38.9457 88.0971C38.1412 87.2926 37.6942 87.4267 37.6942 88.544V89.4827L36.5768 88.4547C35.817 87.7395 35.4594 86.8903 35.4148 85.8176L35.3701 84.2086L34.9231 85.4601C34.6549 86.2199 33.8951 87.0244 33.0459 87.382L31.6603 87.963L33.0012 88.0077C34.1633 88.0524 36.3534 89.3039 36.3534 89.9296C36.3534 90.0637 35.9064 90.2425 35.3701 90.4213C34.5655 90.6 34.4762 90.7788 34.9231 91.2258C35.7723 92.075 35.5488 92.4772 34.2527 92.4772C33.5822 92.4772 32.6436 92.075 32.152 91.628L31.2134 90.7341V92.7007V94.6673L32.152 93.7734C32.6436 93.3265 33.5822 92.9242 34.2527 92.9242C35.5935 92.9242 35.6829 93.0583 35.0125 94.3097C34.6102 95.0249 34.6996 95.159 35.4594 95.159C35.9511 95.159 36.3534 95.3377 36.3534 95.5165C36.3534 96.321 34.6549 97.3937 33.4035 97.3937L32.1073 97.4384L33.3588 98.1089C34.0292 98.4664 34.5655 99.0028 34.5655 99.2709C34.5655 99.5391 35.0125 99.0922 35.5935 98.2876C36.845 96.4104 37.6942 96.0976 37.6942 97.4384C37.6942 98.2429 37.8283 98.3323 38.2306 97.9301C38.5434 97.6172 38.9457 97.3937 39.1245 97.3937C39.7949 97.3937 39.482 100.21 38.7222 101.103C37.9624 101.953 37.9624 101.997 38.901 101.461C39.6161 101.103 40.1972 101.103 41.1358 101.461L42.3872 101.908L41.3592 100.88C40.8229 100.254 40.3759 99.2262 40.3759 98.5558C40.3759 97.4384 40.51 97.349 41.4933 97.5725C42.2978 97.796 42.6107 97.6619 42.6107 97.1703C42.6107 96.8127 42.7895 96.4998 42.9683 96.4998C43.7728 96.4998 44.8455 98.1982 44.8455 99.4497L44.8902 100.746L45.4712 99.6732C45.7841 99.0922 46.5439 98.3323 47.1249 98.0195L48.1976 97.4384L46.8121 97.3937C45.9629 97.3937 45.0689 96.9915 44.3985 96.2763L43.3705 95.159H44.3091C45.4265 95.159 45.4712 95.0249 44.8455 93.7734C44.3985 93.0136 44.5326 92.9242 45.9182 92.9242C47.0802 92.9242 47.706 93.2371 48.4211 94.131C49.0915 95.0249 49.2703 95.1143 49.0468 94.4885C48.5999 93.3265 48.6446 92.0303 49.0915 90.9129C49.3597 90.2872 49.1362 90.4213 48.4658 91.2258C47.706 92.1644 47.0802 92.4772 45.9182 92.4772C44.4432 92.4772 43.9069 91.9409 44.8455 91.3599C45.6053 90.8682 45.3371 90.2425 44.3091 90.2425H43.3705L44.3985 89.1251C45.0689 88.41 45.9629 88.0077 46.8121 88.0077L48.1976 87.963L47.1249 87.382C46.5439 87.0691 45.7841 86.3093 45.4712 85.7282L44.8902 84.6556L44.8455 86.0411C44.8455 86.8903 44.4432 87.7842 43.7281 88.4547L42.6107 89.4827V88.544C42.6107 87.6948 42.4319 87.6054 41.4933 87.8289C40.51 88.0524 40.3759 87.963 40.3759 86.8456C40.3759 86.1752 40.8229 85.1025 41.4039 84.5215L42.3872 83.4488L41.2251 83.9851C40.3312 84.3874 39.7949 84.3874 39.1245 84.0298C37.6942 83.27 37.4707 83.4488 38.4987 84.5662ZM39.482 90.6894C39.482 90.9129 39.3926 91.1364 39.3032 91.1364C39.1692 91.1364 38.9457 90.9129 38.8116 90.6894C38.6775 90.4213 38.7669 90.2425 38.9904 90.2425C39.2586 90.2425 39.482 90.4213 39.482 90.6894ZM41.4933 90.6894C41.3592 90.9129 41.0464 91.1364 40.7782 91.1364C40.5547 91.1364 40.3759 90.9129 40.3759 90.6894C40.3759 90.4213 40.6888 90.2425 41.0911 90.2425C41.4486 90.2425 41.6274 90.4213 41.4933 90.6894ZM38.5881 92.075C38.5881 92.2985 38.2753 92.4772 37.9177 92.4772C37.2473 92.4772 37.0238 91.9409 37.5154 91.4492C37.873 91.0917 38.5881 91.4939 38.5881 92.075ZM42.4319 92.3432C41.985 92.7901 41.5827 92.1197 41.985 91.5386C42.2531 91.047 42.3425 91.047 42.5213 91.5386C42.6107 91.8515 42.566 92.2091 42.4319 92.3432ZM38.5881 93.2818C38.5881 93.8628 38.0518 94.2651 37.6048 93.9969C37.1579 93.7287 37.5601 92.9242 38.1859 92.9242C38.4093 92.9242 38.5881 93.103 38.5881 93.2818ZM42.6107 93.6393C42.6107 94.2651 42.4766 94.2651 41.9403 93.8181C41.5827 93.5052 41.2698 93.1924 41.2698 93.103C41.2698 93.0136 41.5827 92.9242 41.9403 92.9242C42.2978 92.9242 42.6107 93.2371 42.6107 93.6393ZM39.482 94.9802C39.482 95.3377 39.2586 95.5165 39.0351 95.3824C38.7669 95.2037 38.6775 94.8908 38.8116 94.6673C39.2139 94.0416 39.482 94.1757 39.482 94.9802ZM41.3145 94.8461C41.2698 95.3824 40.6441 95.2484 40.4653 94.6673C40.3312 94.3991 40.51 94.2204 40.8229 94.3097C41.0911 94.4438 41.3145 94.6673 41.3145 94.8461Z" fill="black"/>
<path d="M32.3308 85.7728C32.3308 86.3539 32.6437 86.6667 33.2247 86.6667C33.8058 86.6667 34.1186 86.3539 34.1186 85.7728C34.1186 85.1918 33.8058 84.8789 33.2247 84.8789C32.6437 84.8789 32.3308 85.1918 32.3308 85.7728Z" fill="black"/>
<path d="M46.1864 85.7728C46.1864 86.3539 46.4992 86.6667 47.0803 86.6667C47.6613 86.6667 47.9742 86.3539 47.9742 85.7728C47.9742 85.1918 47.6613 84.8789 47.0803 84.8789C46.4992 84.8789 46.1864 85.1918 46.1864 85.7728Z" fill="black"/>
<path d="M98.9268 90.4659C98.9268 91.3598 99.1503 91.5833 100.044 91.5833C100.938 91.5833 101.162 91.3598 101.162 90.4659C101.162 89.572 100.938 89.3485 100.044 89.3485C99.1503 89.3485 98.9268 89.572 98.9268 90.4659Z" fill="black"/>
<path d="M116.805 90.4659C116.805 91.3598 117.029 91.5833 117.922 91.5833C118.816 91.5833 119.04 91.3598 119.04 90.4659C119.04 89.572 118.816 89.3485 117.922 89.3485C117.029 89.3485 116.805 89.572 116.805 90.4659Z" fill="black"/>
<path d="M29.2468 92.2088C28.8446 92.6558 28.8893 92.924 29.4256 93.3709C30.2748 94.086 31.2581 93.3262 30.8559 92.2982C30.4983 91.4043 29.9173 91.4043 29.2468 92.2088Z" fill="black"/>
<path d="M49.0022 92.2984C48.6446 93.1923 49.762 93.9074 50.5218 93.2817C50.9688 92.9241 50.9688 92.656 50.6112 92.209C49.9408 91.4045 49.3597 91.4045 49.0022 92.2984Z" fill="black"/>
<path d="M108.179 93.7285C107.464 94.533 107.464 94.6224 108.224 95.2928C109.028 96.008 109.117 96.008 109.788 95.2482C110.503 94.4436 110.503 94.3542 109.743 93.6838C108.939 92.9687 108.849 92.9687 108.179 93.7285Z" fill="black"/>
<path d="M32.3308 99.6284C32.3308 100.209 32.6437 100.522 33.2247 100.522C33.8058 100.522 34.1186 100.209 34.1186 99.6284C34.1186 99.0474 33.8058 98.7345 33.2247 98.7345C32.6437 98.7345 32.3308 99.0474 32.3308 99.6284Z" fill="black"/>
<path d="M46.1864 99.6284C46.1864 100.12 46.4992 100.522 46.8568 100.522C47.2144 100.522 47.5272 100.12 47.5272 99.6284C47.5272 99.1368 47.2144 98.7345 46.8568 98.7345C46.4992 98.7345 46.1864 99.1368 46.1864 99.6284Z" fill="black"/>
<path d="M39.482 102.087C38.5881 103.159 39.6608 104.098 40.6441 103.159C41.2251 102.533 41.2251 102.399 40.6888 101.952C40.1972 101.505 39.929 101.55 39.482 102.087Z" fill="black"/>
<path d="M87.4849 103.249C87.0379 104.009 88.0659 104.858 88.6917 104.232C89.228 103.696 88.8704 102.757 88.2 102.757C87.9765 102.757 87.6637 102.981 87.4849 103.249Z" fill="black"/>
<path d="M86.9932 105.349C87.9765 106.422 88.0212 108.791 87.0826 108.389C86.6804 108.255 86.2781 108.433 86.0993 108.836C85.6971 109.953 84.1774 108.255 84.1774 106.601L84.1327 105.215L83.5517 106.288C83.2388 106.869 82.479 107.629 81.898 107.942L80.8253 108.523L82.2108 108.567C82.9706 108.567 83.9092 108.925 84.3562 109.417C85.116 110.221 85.0713 110.311 84.1774 110.579C83.4176 110.802 83.3282 111.026 83.7752 111.517C84.1774 112.009 84.0433 112.143 83.06 112.143C82.3449 112.143 81.451 111.83 81.0934 111.517C80.423 110.892 80.3783 111.026 80.3783 112.59C80.3783 114.154 80.423 114.288 81.0934 113.663C81.8086 112.992 84.1774 112.769 84.1774 113.395C84.1774 113.573 83.9539 113.976 83.6411 114.288C83.2388 114.691 83.3282 114.825 84.1774 114.825H85.2054L84.1774 115.942C83.5964 116.568 82.7025 117.06 82.2108 117.104C81.5404 117.104 81.4957 117.194 81.9426 117.372C82.3002 117.506 82.9706 118.043 83.3729 118.579L84.1774 119.518V118.579C84.1774 118.088 84.5797 117.283 85.0713 116.836C85.8758 116.121 85.9652 116.121 85.9652 116.747C85.9652 117.641 86.4569 117.73 87.2167 116.97C88.1106 116.076 87.8871 119.294 86.9932 120.322C86.2334 121.127 86.2334 121.127 87.3508 120.635C88.2894 120.233 88.781 120.233 89.5856 120.635L90.6582 121.216L89.6749 120.099C89.0939 119.518 88.647 118.445 88.647 117.819C88.647 116.702 88.7363 116.657 89.5409 117.06C90.256 117.462 90.4348 117.417 90.4348 116.836C90.4348 115.138 92.6695 117.149 92.7142 118.892V119.965L93.1165 118.937C93.34 118.4 94.0104 117.73 94.5467 117.506C95.5747 117.104 95.5747 117.104 94.4127 117.104C92.7589 117.06 90.837 114.825 92.4461 114.825C93.2506 114.825 93.2953 114.288 92.5801 113.573C91.5521 112.545 94.5467 112.992 95.7088 114.02L96.7368 115.048L96.2899 113.797C95.9323 112.858 95.9323 112.277 96.2899 111.562C96.8262 110.623 96.7815 110.623 95.9323 111.339C95.4406 111.785 94.4127 112.143 93.5634 112.143C92.312 112.143 92.1779 112.054 92.6695 111.473C93.1165 110.936 93.0718 110.757 92.4908 110.534C91.7756 110.266 91.8203 110.176 92.5354 109.372C92.9824 108.88 93.7422 108.299 94.2339 108.076C94.949 107.808 94.949 107.718 94.368 107.718C93.9657 107.673 93.4294 107.137 93.2059 106.422L92.7589 105.215L92.7142 106.377C92.6695 107.003 92.1779 107.986 91.5521 108.567L90.4348 109.595V108.567C90.4348 107.718 90.3007 107.629 89.8984 108.031C89.5856 108.344 89.1833 108.567 89.0045 108.567C88.3341 108.567 88.647 106.199 89.4515 105.305C90.1666 104.455 90.1666 104.411 89.2727 104.902C88.7363 105.215 88.1106 105.215 87.7083 104.947C86.6357 104.277 86.2334 104.5 86.9932 105.349ZM87.753 110.802C87.753 111.026 87.6637 111.249 87.5743 111.249C87.4402 111.249 87.2167 111.026 87.0826 110.802C86.9485 110.534 87.0379 110.355 87.2614 110.355C87.5296 110.355 87.753 110.534 87.753 110.802ZM89.5409 110.802C89.5409 111.026 89.3621 111.249 89.0939 111.249C88.8704 111.249 88.647 111.026 88.647 110.802C88.647 110.534 88.8704 110.355 89.0939 110.355C89.3621 110.355 89.5409 110.534 89.5409 110.802ZM86.6357 111.696C86.7697 111.92 86.6804 112.143 86.4569 112.143C86.1887 112.143 85.9652 111.92 85.9652 111.696C85.9652 111.428 86.0546 111.249 86.144 111.249C86.2781 111.249 86.5016 111.428 86.6357 111.696ZM90.7476 111.964C90.6135 112.098 90.2113 112.143 89.8984 112.009C89.5409 111.875 89.6749 111.741 90.1666 111.741C90.6582 111.696 90.9264 111.83 90.7476 111.964ZM86.8591 113.484C86.8591 113.707 86.6804 113.931 86.4122 113.931C86.1887 113.931 85.9652 113.707 85.9652 113.484C85.9652 113.216 86.1887 113.037 86.4122 113.037C86.6804 113.037 86.8591 113.216 86.8591 113.484ZM90.8817 113.216C90.8817 113.707 90.0325 113.886 89.7643 113.484C89.6302 113.26 89.809 113.037 90.1666 113.037C90.5689 113.037 90.8817 113.126 90.8817 113.216ZM89.3174 114.378C89.4515 114.601 89.3621 114.825 89.1386 114.825C88.8704 114.825 88.647 114.601 88.647 114.378C88.647 114.11 88.7363 113.931 88.8257 113.931C88.9598 113.931 89.1833 114.11 89.3174 114.378Z" fill="black"/>
<path d="M81.4957 106.333C81.4957 106.824 81.8085 107.227 82.1661 107.227C82.5237 107.227 82.8365 106.824 82.8365 106.333C82.8365 105.841 82.5237 105.439 82.1661 105.439C81.8085 105.439 81.4957 105.841 81.4957 106.333Z" fill="black"/>
<path d="M94.0104 106.333C94.0104 106.824 94.3233 107.227 94.6808 107.227C95.0384 107.227 95.3513 106.824 95.3513 106.333C95.3513 105.841 95.0384 105.439 94.6808 105.439C94.3233 105.439 94.0104 105.841 94.0104 106.333Z" fill="black"/>
<path d="M116.358 108.791C116.358 109.149 116.671 109.461 117.028 109.461C117.386 109.461 117.699 109.149 117.699 108.791C117.699 108.433 117.386 108.121 117.028 108.121C116.671 108.121 116.358 108.433 116.358 108.791Z" fill="black"/>
<path d="M116.135 110.355C117.029 111.339 117.029 112.769 116.135 112.411C115.688 112.277 115.464 112.456 115.464 112.903C115.464 113.529 115.375 113.529 114.57 112.813C114.079 112.367 113.676 111.562 113.632 111.07C113.632 110.176 113.587 110.176 113.274 110.981C113.095 111.473 112.559 112.009 112.067 112.188C111.263 112.501 111.263 112.545 112.157 112.545C112.648 112.59 113.453 112.992 113.9 113.484C114.66 114.333 114.66 114.378 113.9 114.378C113.408 114.378 113.229 114.601 113.408 115.048C113.766 116.032 111.62 115.942 111.039 114.959C110.726 114.378 110.637 114.557 110.682 115.853C110.726 117.328 110.771 117.417 111.442 116.836C112.559 115.808 113.81 115.942 113.453 117.06C113.274 117.641 113.364 117.953 113.721 117.953C114.034 117.953 113.9 118.356 113.319 118.937C112.514 119.831 112.47 120.054 113.051 120.814C113.676 121.663 113.676 121.663 113.676 120.769C113.676 119.607 114.794 118.579 115.241 119.294C115.419 119.562 115.822 119.697 116.179 119.562C117.073 119.205 116.984 121.037 116.045 122.11C115.285 122.959 115.285 123.004 116.135 122.557C116.626 122.289 117.341 122.199 117.699 122.334C118.235 122.512 118.28 122.423 117.833 121.931C116.984 121.082 117.073 119.116 117.922 119.428C118.28 119.607 118.682 119.518 118.861 119.25C119.219 118.669 120.381 119.607 120.381 120.456C120.381 120.948 120.559 120.993 121.23 120.546C122.034 120.054 122.034 120.009 120.962 119.16C120.247 118.579 120.023 118.132 120.336 117.819C120.559 117.596 120.649 117.104 120.515 116.791C120.202 115.897 121.677 115.987 122.75 116.925C123.643 117.685 123.643 117.685 123.331 116.881C123.107 116.21 123.152 116.121 123.643 116.523C124.314 117.104 124.85 116.791 124.85 115.808C124.85 115.45 124.582 115.272 124.18 115.45C123.822 115.585 123.509 115.45 123.509 115.182C123.509 114.78 123.375 114.78 122.973 115.182C122.168 115.987 120.202 115.897 120.515 115.093C120.649 114.735 120.559 114.333 120.247 114.244C119.442 113.976 120.738 112.59 121.766 112.59C122.526 112.59 122.481 112.501 121.587 111.562C120.783 110.802 120.559 110.713 120.425 111.249C120.336 111.607 120.023 112.277 119.71 112.724C119.219 113.395 119.129 113.439 118.906 112.858C118.727 112.456 118.325 112.277 117.922 112.411C117.029 112.769 117.029 111.339 117.922 110.355C118.503 109.729 118.414 109.64 117.029 109.64C115.643 109.64 115.554 109.729 116.135 110.355ZM115.911 116.613C115.911 116.836 115.688 117.06 115.419 117.06C115.196 117.06 115.107 116.836 115.241 116.613C115.375 116.344 115.598 116.166 115.732 116.166C115.822 116.166 115.911 116.344 115.911 116.613ZM119.04 116.613C119.04 116.836 118.95 117.06 118.861 117.06C118.727 117.06 118.503 116.836 118.369 116.613C118.235 116.344 118.325 116.166 118.548 116.166C118.816 116.166 119.04 116.344 119.04 116.613ZM116.805 117.506C116.805 117.73 116.582 117.953 116.313 117.953C116.09 117.953 116.001 117.73 116.135 117.506C116.269 117.238 116.492 117.06 116.626 117.06C116.716 117.06 116.805 117.238 116.805 117.506ZM117.922 117.506C118.057 117.73 117.967 117.953 117.744 117.953C117.475 117.953 117.252 117.73 117.252 117.506C117.252 117.238 117.341 117.06 117.431 117.06C117.565 117.06 117.788 117.238 117.922 117.506Z" fill="black"/>
<path d="M111.442 111.026C111.442 111.383 111.754 111.696 112.112 111.696C112.47 111.696 112.782 111.383 112.782 111.026C112.782 110.668 112.47 110.355 112.112 110.355C111.754 110.355 111.442 110.668 111.442 111.026Z" fill="black"/>
<path d="M121.721 111.026C121.721 111.383 121.945 111.696 122.168 111.696C122.437 111.696 122.615 111.383 122.615 111.026C122.615 110.668 122.437 110.355 122.168 110.355C121.945 110.355 121.721 110.668 121.721 111.026Z" fill="black"/>
<path d="M78.5458 112.188C78.0988 112.948 79.1268 113.797 79.7526 113.171C80.2889 112.635 79.9313 111.696 79.2609 111.696C79.0374 111.696 78.7246 111.92 78.5458 112.188Z" fill="black"/>
<path d="M96.424 112.188C95.977 112.948 97.005 113.797 97.6308 113.171C98.1671 112.635 97.8095 111.696 97.1391 111.696C96.9156 111.696 96.6028 111.92 96.424 112.188Z" fill="black"/>
<path d="M109.207 115.898C109.207 116.3 109.52 116.613 109.922 116.613C110.682 116.613 110.548 115.629 109.743 115.361C109.43 115.272 109.207 115.495 109.207 115.898Z" fill="black"/>
<path d="M81.4957 118.847C81.4957 119.339 81.8085 119.741 82.1661 119.741C82.5237 119.741 82.8365 119.339 82.8365 118.847C82.8365 118.356 82.5237 117.953 82.1661 117.953C81.8085 117.953 81.4957 118.356 81.4957 118.847Z" fill="black"/>
<path d="M93.7423 118.445C93.2953 119.205 94.3233 120.054 94.949 119.428C95.4854 118.892 95.1278 117.953 94.4574 117.953C94.2339 117.953 93.921 118.177 93.7423 118.445Z" fill="black"/>
<path d="M87.4849 121.127C87.0379 121.887 88.0659 122.736 88.6917 122.11C89.228 121.574 88.8704 120.635 88.2 120.635C87.9765 120.635 87.6637 120.859 87.4849 121.127Z" fill="black"/>
<path d="M111.442 121.082C111.442 121.306 111.754 121.529 112.112 121.529C112.47 121.529 112.782 121.306 112.782 121.082C112.782 120.814 112.47 120.635 112.112 120.635C111.754 120.635 111.442 120.814 111.442 121.082Z" fill="black"/>
<path d="M121.275 121.082C121.275 121.306 121.587 121.529 121.945 121.529C122.303 121.529 122.615 121.306 122.615 121.082C122.615 120.814 122.303 120.635 121.945 120.635C121.587 120.635 121.275 120.814 121.275 121.082Z" fill="black"/>
<path d="M116.582 122.87C116.403 123.138 116.447 123.585 116.716 123.853C116.984 124.121 117.252 124.121 117.475 123.764C117.654 123.496 117.61 123.049 117.341 122.781C117.073 122.512 116.805 122.512 116.582 122.87Z" fill="black"/>
<path d="M56.4663 123.585C55.9747 124.121 56.0194 124.39 56.6004 125.015C57.3155 125.686 57.4049 125.686 58.1201 125.015C58.7011 124.39 58.7458 124.121 58.2541 123.585C57.9413 123.183 57.539 122.87 57.3602 122.87C57.1815 122.87 56.7792 123.183 56.4663 123.585Z" fill="black"/>
<path d="M59.0139 125.82C58.0306 126.356 57.4496 126.401 56.3769 126.043C54.5444 125.418 54.4103 125.596 55.7959 126.893C56.6004 127.652 56.9132 128.412 56.9132 129.708C56.9132 130.915 56.7345 131.407 56.3769 131.228C54.1868 130.334 54.2315 130.334 54.2315 131.63V132.882L52.6672 131.362C51.5051 130.2 51.1028 129.44 51.0581 128.278L51.0135 126.669L50.5665 128.099C50.2089 129.127 49.6279 129.708 48.4658 130.2L46.8568 130.87H48.4658C49.6279 130.915 50.3877 131.273 51.5051 132.435L52.9354 133.91L51.5051 134.223C50.1642 134.491 50.1195 134.535 50.79 135.295C51.9074 136.502 51.7286 136.725 49.8961 136.725C48.6446 136.725 47.8848 136.368 46.7674 135.295L45.2924 133.865L45.8735 135.608C46.4098 137.128 46.4098 137.619 45.8735 138.96L45.2031 140.525L46.7227 139.05C47.8848 137.977 48.6446 137.619 49.8961 137.619C51.7733 137.619 51.818 137.709 50.8347 139.184C50.1195 140.301 50.1195 140.301 51.5945 140.301H53.0694L51.5498 141.865C50.3877 143.072 49.6279 143.43 48.4658 143.474L46.8568 143.519L48.3764 144.056C49.4938 144.458 50.0749 145.039 50.4771 146.156L51.0135 147.676L51.0581 146.156C51.1028 145.084 51.5051 144.19 52.3096 143.34C53.7846 141.776 54.2315 141.776 54.2315 143.251C54.2315 144.413 54.2762 144.413 55.3489 143.698C56.8238 142.715 56.9132 142.759 56.9132 144.637C56.9132 145.799 56.5557 146.648 55.7065 147.542C54.4997 148.793 54.9019 149.196 56.4663 148.346C57.0473 148.033 57.7625 148.123 59.0139 148.614L60.7123 149.33L59.2821 147.81C58.1647 146.648 57.8071 145.888 57.8071 144.637C57.8071 142.804 58.0306 142.67 59.5056 143.698C60.4442 144.324 60.4889 144.324 60.4889 143.251C60.4889 141.776 60.9358 141.776 62.4108 143.34C63.2153 144.19 63.6175 145.128 63.6622 146.156L63.7069 147.676L64.3327 146.246C64.6902 145.352 65.5394 144.502 66.4334 144.145L67.8636 143.519L66.2546 143.474C65.1372 143.43 64.3327 143.072 63.4835 142.178C62.0085 140.614 62.0085 140.48 63.4388 140.122C64.5115 139.854 64.5561 139.765 63.8857 139.005C62.813 137.843 62.9918 137.619 64.8243 137.619C66.0758 137.619 66.8356 137.977 67.9977 139.05L69.5173 140.525L68.8022 138.826C68.2212 137.351 68.2212 136.994 68.8022 135.474L69.5173 133.82L67.9977 135.251C66.8356 136.413 66.0758 136.725 64.7796 136.725C63.5728 136.725 63.1259 136.547 63.3047 136.144C64.1986 133.999 64.1986 134.044 62.9024 134.044H61.6509L63.1706 132.479C64.3327 131.317 65.0925 130.915 66.2546 130.87L67.8636 130.826L66.3887 130.2C65.4947 129.798 64.6455 128.993 64.288 128.099L63.6622 126.669L63.6175 128.189C63.6175 129.172 63.1706 130.155 62.3214 131.139C60.9358 132.748 60.4889 132.703 60.4889 131.049C60.4889 130.021 60.4442 130.021 59.5056 130.647C58.0306 131.675 57.8071 131.541 57.8071 129.708C57.8071 128.457 58.1647 127.697 59.2374 126.58C60.8464 124.926 60.8017 124.837 59.0139 125.82ZM56.9132 134.535C56.9132 135.34 56.8238 135.385 56.2428 134.938C55.5724 134.401 55.7065 133.597 56.511 133.597C56.7345 133.597 56.9132 134.044 56.9132 134.535ZM59.595 134.267C59.595 134.312 59.2821 134.625 58.9245 134.938C58.3435 135.385 58.2541 135.34 58.2541 134.58C58.2541 133.91 58.4776 133.686 58.9245 133.865C59.2821 134.044 59.595 134.178 59.595 134.267ZM54.9466 136.636C53.9633 136.86 53.6058 136.502 54.008 135.832C54.2315 135.474 54.4997 135.519 54.9913 135.921C55.6618 136.457 55.6171 136.502 54.9466 136.636ZM60.9358 136.323C60.9358 136.547 60.4889 136.725 59.9972 136.725C59.1927 136.725 59.148 136.636 59.595 136.055C60.1313 135.385 60.9358 135.519 60.9358 136.323ZM55.5724 138.022C55.5724 138.245 55.2595 138.647 54.9019 138.96C54.5444 139.273 54.2315 139.407 54.2315 139.273C54.2315 139.139 54.0974 138.737 53.9633 138.335C53.7846 137.798 53.9633 137.619 54.6338 137.619C55.1701 137.619 55.5724 137.798 55.5724 138.022ZM60.9358 137.932C60.9358 138.156 60.757 138.558 60.5336 138.916C60.2207 139.407 60.0419 139.318 59.6397 138.558C59.1927 137.753 59.2374 137.619 60.0419 137.619C60.5336 137.619 60.9358 137.753 60.9358 137.932ZM56.7792 140.614C56.6451 140.748 56.2875 140.703 56.0193 140.525C55.6618 140.301 55.7065 140.033 56.1087 139.541C56.6451 138.871 56.6898 138.916 56.8238 139.586C56.9132 140.033 56.8685 140.48 56.7792 140.614ZM59.1033 139.586C59.5056 140.033 59.4609 140.256 58.9245 140.48C58.4776 140.659 58.2541 140.435 58.2541 139.854C58.2541 138.781 58.4329 138.737 59.1033 139.586Z" fill="black"/>
<path d="M47.5272 128.01C47.5272 128.814 47.7507 129.127 48.4211 129.127C49.0916 129.127 49.315 128.814 49.315 128.01C49.315 127.205 49.0916 126.893 48.4211 126.893C47.7507 126.893 47.5272 127.205 47.5272 128.01Z" fill="black"/>
<path d="M65.4053 127.965C65.4053 128.904 65.6288 129.127 66.5674 129.127C67.506 129.127 67.6848 128.949 67.5507 128.099C67.4613 127.474 67.0591 127.071 66.4333 126.982C65.5841 126.848 65.4053 127.027 65.4053 127.965Z" fill="black"/>
<path d="M43.5046 136.547C43.013 137.083 43.0577 137.351 43.6387 137.977C44.3539 138.647 44.4433 138.647 45.1584 137.977C45.7394 137.351 45.7841 137.083 45.2925 136.547C44.9796 136.144 44.5773 135.832 44.3986 135.832C44.2198 135.832 43.8175 136.144 43.5046 136.547Z" fill="black"/>
<path d="M69.0257 136.413C68.6681 136.904 68.7575 137.217 69.4279 137.843C70.2771 138.603 70.4112 138.603 71.0817 137.932C71.6627 137.351 71.7074 137.083 71.2158 136.547C70.5453 135.653 69.6961 135.653 69.0257 136.413Z" fill="black"/>
<path d="M47.5272 146.112C47.5272 146.782 47.8401 147.005 48.6446 147.005C49.4491 147.005 49.762 146.782 49.762 146.112C49.762 145.441 49.4491 145.218 48.6446 145.218C47.8401 145.218 47.5272 145.441 47.5272 146.112Z" fill="black"/>
<path d="M64.9584 146.112C64.9584 146.782 65.2713 147.005 66.0758 147.005C66.8803 147.005 67.1932 146.782 67.1932 146.112C67.1932 145.441 66.8803 145.218 66.0758 145.218C65.2713 145.218 64.9584 145.441 64.9584 146.112Z" fill="black"/>
<path d="M56.4663 149.508C55.9747 150.045 56.0194 150.313 56.6004 150.939C57.3155 151.609 57.4049 151.609 58.1201 150.939C58.7011 150.313 58.7458 150.045 58.2541 149.508C57.9413 149.106 57.539 148.793 57.3602 148.793C57.1815 148.793 56.7792 149.106 56.4663 149.508Z" fill="black"/>
</svg>
