<svg width="160" height="156" viewBox="0 0 160 156" fill="none" xmlns="http://www.w3.org/2000/svg">
<path d="M78.092 1.10598C77.3727 2.13345 77.3214 4.18839 77.6296 18.4702C77.8351 27.8202 78.1947 34.9097 78.5029 35.2693C79.1194 36.0913 81.534 36.1427 82.356 35.3207C82.8183 34.8584 82.9724 30.3375 82.9724 18.162C82.9724 3.7774 82.8697 1.4656 82.1505 0.797741C81.0202 -0.383846 79.0681 -0.229725 78.092 1.10598Z" fill="black"/>
<path d="M126.948 19.0867C124.636 21.193 107.118 44.1569 107.118 45.133C107.118 46.3146 108.711 47.7531 110.046 47.7531C110.611 47.7531 111.536 47.2393 112.101 46.5715C115.081 43.2836 131.777 21.3985 131.777 20.782C131.777 19.8059 129.928 17.9564 129.003 17.9564C128.592 17.9564 127.667 18.4702 126.948 19.0867Z" fill="black"/>
<path d="M25.1259 23.3507C24.3553 24.5323 24.3553 24.7378 25.1772 26.0221C25.691 26.7927 30.6228 32.5466 36.1198 38.8655C44.6478 48.6265 46.3945 50.3218 47.5761 50.3218C49.4769 50.3218 50.7099 48.6265 50.0934 46.9311C49.8365 46.2633 44.956 40.4067 39.2536 33.8823C30.3146 23.659 28.722 22.0664 27.4377 22.0664C26.4616 22.0664 25.691 22.4774 25.1259 23.3507Z" fill="black"/>
<path d="M71.9271 41.845C57.2857 45.1329 45.6239 56.5892 42.0278 71.2306C40.9489 75.8543 40.9489 84.4336 42.0791 89.0572C48.0898 113.871 75.2664 126.663 97.768 115.36C107.632 110.377 114.67 102.055 118.009 91.4204C119.037 88.1325 119.191 86.4886 119.191 80.1183C119.191 73.6966 119.037 72.2067 118.009 69.073C115.389 61.2642 112.307 56.4865 106.45 51.0922C102.135 47.0851 94.6342 43.1807 88.7776 41.8964C84.3081 40.9203 76.1911 40.8689 71.9271 41.845ZM85.8493 48.3181C92.7847 49.6024 99.2064 53.1472 104.087 58.4387C109.43 64.1925 112.153 70.5114 112.615 78.3202C113.54 93.9377 103.008 108.168 87.9556 111.713C83.2807 112.843 76.2939 112.689 71.6703 111.405C52.1483 106.01 42.336 83.9199 51.4805 65.6823C53.5868 61.4697 58.6214 55.87 62.5772 53.2499C69.6667 48.6777 77.9892 46.8796 85.8493 48.3181Z" fill="black"/>
<path d="M141.333 67.2235C127.821 68.8674 125.356 69.2784 124.79 70.1004C123.814 71.4361 123.917 72.6177 125.099 73.6966C126.023 74.5699 126.64 74.5185 140.1 72.9773C158.594 70.8196 158.44 70.871 159.262 69.9977C160.392 68.9188 160.187 66.9153 158.902 66.0419C158.286 65.5795 157.618 65.2199 157.464 65.2713C157.31 65.3227 150.066 66.196 141.333 67.2235Z" fill="black"/>
<path d="M0.466647 71.6417C-0.766316 73.5425 0.518021 75.3406 3.44631 75.7002C6.58009 76.1112 30.8284 78.0634 32.8833 78.0634C35.7088 78.0634 37.0959 75.8543 35.5547 73.748C35.041 73.0288 32.6264 72.6691 20.2968 71.6417C1.49412 70.0491 1.54549 70.0491 0.466647 71.6417Z" fill="black"/>
<path d="M25.5369 110.223C18.1392 114.898 11.8202 119.213 11.512 119.779C10.7414 121.166 12.1798 123.272 13.9265 123.272C15.2109 123.272 41.0003 107.398 42.2333 105.805C42.5929 105.394 42.9012 104.675 42.9012 104.212C42.9012 103.134 41.2572 101.695 40.0242 101.695C39.4591 101.695 32.9347 105.548 25.5369 110.223Z" fill="black"/>
<path d="M120.27 103.545C119.293 104.521 119.242 105.856 120.115 106.935C121.04 108.168 148.165 122.245 149.552 122.245C150.272 122.245 151.094 121.731 151.607 120.96C152.378 119.83 152.378 119.573 151.659 118.494C150.837 117.21 123.609 102.723 122.068 102.723C121.503 102.723 120.681 103.082 120.27 103.545Z" fill="black"/>
<path d="M62.5258 121.32C61.447 122.655 51.0696 151.219 51.2237 152.452C51.4292 154.302 53.0731 155.278 54.6657 154.456C55.6932 153.942 56.9261 151.168 61.4984 138.992C64.5294 130.824 67.0467 123.632 67.0467 123.066C67.0467 122.45 66.7898 121.679 66.4302 121.32C65.6083 120.498 63.1937 120.549 62.5258 121.32Z" fill="black"/>
<path d="M92.3224 121.32C91.9628 121.679 91.706 122.501 91.706 123.221C91.706 123.991 94.1205 131.235 96.9974 139.455C101.827 153.12 102.34 154.353 103.625 154.815C104.755 155.226 105.269 155.124 106.091 154.353C106.656 153.839 107.118 153.069 107.118 152.606C107.118 151.579 96.8433 122.245 96.1755 121.32C95.559 120.549 93.1444 120.498 92.3224 121.32Z" fill="black"/>
</svg>
