<svg width="10" height="32" viewBox="0 0 10 32" fill="none" xmlns="http://www.w3.org/2000/svg">
<path d="M2.89077 0.0642033C2.83115 0.124489 2.78644 5.20347 2.78644 11.3374L2.77153 22.5052L2.10081 22.9422C0.759378 23.8013 -0.179627 25.9565 0.029041 27.6444C0.237709 29.3324 1.34067 30.8697 2.92058 31.6534C3.48697 31.9397 3.85959 32 5.02216 32C6.22946 32 6.55736 31.9397 7.18337 31.6383C9.70229 30.3723 10.7158 27.2827 9.46381 24.7206C9.15081 24.0876 7.69013 22.5805 7.39204 22.5805C7.31751 22.5805 7.24299 17.9838 7.22808 11.3073L7.18337 0.0491333L5.08178 0.0039196C3.93411 -0.0111504 2.95039 0.0189896 2.89077 0.0642033ZM6.51265 6.00224V11.2771H5.02216H3.53168V6.00224V0.727335H5.02216H6.51265V6.00224Z" fill="black"/>
</svg>
